<svg data-v-fde0c5aa="" xmlns="http://www.w3.org/2000/svg" viewBox="0 0 300 300" class="iconLeft"><!----><defs data-v-fde0c5aa=""><!----></defs><rect data-v-fde0c5aa="" fill="#0070d2" x="0" y="0" width="300px" height="300px" class="logo-background-square"></rect><defs data-v-fde0c5aa=""><!----></defs><g data-v-fde0c5aa="" id="c6a4dded-7069-46d5-b1d4-c1005d909ea0" fill="#000" transform="matrix(4.193546662914719,0,0,4.193546662914719,98.42265475900871,111.58711120794675)"><path d="M7.83 14L9.48 14L5.71 4.31L3.86 4.31L0.11 14L1.75 14L2.52 11.91L7.06 11.91ZM2.98 10.65L4.79 5.80L6.59 10.65ZM14.41 6.99C13.37 6.99 12.49 7.41 11.89 8.11L11.89 4.31L10.46 4.31L10.46 14L11.89 14L11.89 13.01C12.49 13.71 13.37 14.13 14.41 14.13C16.35 14.13 17.77 12.63 17.77 10.56C17.77 8.48 16.35 6.99 14.41 6.99ZM14.10 12.88C12.81 12.88 11.89 11.91 11.89 10.56C11.89 9.21 12.81 8.23 14.10 8.23C15.37 8.23 16.30 9.21 16.30 10.56C16.30 11.91 15.37 12.88 14.10 12.88ZM26.07 10.57C26.05 8.48 24.53 6.99 22.40 6.99C20.27 6.99 18.72 8.48 18.72 10.56C18.72 12.63 20.27 14.13 22.40 14.13C24.09 14.13 25.56 13.03 25.96 11.51L24.50 11.51C24.23 12.33 23.39 12.95 22.41 12.95C21.22 12.95 20.31 12.15 20.13 11.00L26.03 11.00C26.05 10.86 26.07 10.71 26.07 10.57ZM22.41 8.16C23.55 8.16 24.46 8.88 24.70 9.90L20.17 9.90C20.43 8.86 21.29 8.16 22.41 8.16ZM30.03 5.40C30.18 5.40 30.38 5.43 30.56 5.50L30.56 4.24C30.38 4.20 30.17 4.19 30.02 4.19C28.70 4.19 27.78 5.01 27.78 6.19L27.78 7.11L26.78 7.11L26.78 8.32L27.78 8.32L27.78 14L29.20 14L29.20 8.32L30.56 8.32L30.56 7.11L29.20 7.11L29.20 6.19C29.20 5.71 29.55 5.40 30.03 5.40ZM38.53 10.57C38.51 8.48 36.99 6.99 34.86 6.99C32.73 6.99 31.18 8.48 31.18 10.56C31.18 12.63 32.73 14.13 34.86 14.13C36.55 14.13 38.02 13.03 38.42 11.51L36.96 11.51C36.69 12.33 35.85 12.95 34.87 12.95C33.68 12.95 32.77 12.15 32.59 11.00L38.49 11.00C38.51 10.86 38.53 10.71 38.53 10.57ZM34.87 8.16C36.01 8.16 36.92 8.88 37.16 9.90L32.63 9.90C32.89 8.86 33.75 8.16 34.87 8.16Z"></path></g><defs data-v-fde0c5aa=""><!----></defs><g data-v-fde0c5aa="" id="a4567159-28ad-4af2-8bc6-b16deffa9f99" stroke="none" fill="#D7F9FF" transform="matrix(0.12212101418909875,0,0,0.12212101418909875,31.678949953673314,118.73693595944778)"><path d="M203.38 301.486l115.114-38.371-.002-.006c.302-.102.603-.216.897-.358a7.5 7.5 0 003.485-10.018L202.631 4.233a7.501 7.501 0 00-13.502 0l-120.242 248.5a7.495 7.495 0 000 6.533l120.242 248.5a7.499 7.499 0 0010.017 3.485 7.493 7.493 0 004.226-6.751h.007V301.486zm-15 170.295L90.133 268.737l98.246 32.749v170.295zm7.5-447.062l109.774 226.865-109.774 36.591-109.773-36.591z"></path><path d="M332.154 288.581c-61.597 0-111.71 50.113-111.71 111.709 0 61.597 50.113 111.71 111.71 111.71s111.709-50.113 111.709-111.71c.001-61.597-50.112-111.709-111.709-111.709zm0 208.419c-53.326 0-96.71-43.384-96.71-96.71s43.384-96.709 96.71-96.709 96.709 43.384 96.709 96.709c.001 53.326-43.383 96.71-96.709 96.71z"></path><path d="M345.841 393.938a320.03 320.03 0 01-6.673-2.435V355.84c5.642 1.342 9.003 4.197 9.292 4.45a7.5 7.5 0 0010.118-11.073c-.428-.395-7.626-6.88-19.41-8.641v-7.298c0-4.143-3.358-7.5-7.5-7.5s-7.5 3.357-7.5 7.5v7.873a46.366 46.366 0 00-3.431.883c-10.761 3.242-18.801 12.451-20.984 24.034-1.99 10.56 1.392 20.743 8.827 26.574 3.946 3.095 8.858 5.93 15.588 8.924v45.201c-5.838-.426-9.873-1.847-16.493-6.177a7.5 7.5 0 10-8.212 12.552c9.631 6.3 16.207 8.173 24.705 8.648v8.171a7.5 7.5 0 0015 0v-8.767c16.894-3.303 26.762-17.229 28.949-30.236 2.809-16.711-5.935-31.244-22.276-37.02zm-28.005-13.098c-3.011-2.362-4.292-6.958-3.344-11.994.852-4.521 3.843-9.956 9.675-12.138v28.174c-2.383-1.29-4.539-2.636-6.331-4.042zm35.488 47.635c-1.162 6.914-5.983 14.243-14.156 17.148V407.48c.556.2 1.101.397 1.674.6 13.935 4.926 13.076 16.856 12.482 20.395z"></path></g><!----></svg>